<?xml version="1.0" encoding="UTF-8" standalone="no"?>
<svg width="100px" height="100px" viewBox="0 0 100 100" version="1.1" xmlns="http://www.w3.org/2000/svg" xmlns:xlink="http://www.w3.org/1999/xlink" xmlns:sketch="http://www.bohemiancoding.com/sketch/ns">
    <!-- Generator: Sketch 3.5.2 (25235) - http://www.bohemiancoding.com/sketch -->
    <title>camera</title>
    <desc>Created with Sketch.</desc>
    <defs></defs>
    <g id="Page-1" stroke="none" stroke-width="1" fill="none" fill-rule="evenodd" sketch:type="MSPage">
        <g id="camera" sketch:type="MSArtboardGroup" fill-opacity="0.5096524" fill="#000000">
            <g id="noun_164358_cc" sketch:type="MSLayerGroup" transform="translate(15.000000, 22.000000)">
                <path d="M50.9588109,17.0271623 L62.2233901,17.0271623 C62.4915944,17.0271623 62.6703972,16.8665287 62.6703972,16.6255783 L62.6703972,7.2285123 C62.6703972,6.98756189 62.4915944,6.82692829 62.2233901,6.82692829 L50.9588109,6.82692829 C50.6906066,6.82692829 50.5118037,6.98756189 50.5118037,7.2285123 L50.5118037,16.7058951 C50.5118037,16.8665287 50.6906066,17.0271623 50.9588109,17.0271623 L50.9588109,17.0271623 Z M51.405818,7.63009632 L61.776383,7.63009632 L61.776383,16.3043111 L51.405818,16.3043111 L51.405818,7.63009632 L51.405818,7.63009632 Z" id="Shape" sketch:type="MSShapeGroup"></path>
                <path d="M35.8499704,6.50566107 C30.6646879,6.50566107 26.4628211,10.2805508 26.4628211,14.9389254 C26.4628211,19.5973 30.6646879,23.4525066 35.8499704,23.4525066 C41.035253,23.4525066 45.3265212,19.6776168 45.3265212,14.9389254 C45.3265212,10.200234 41.035253,6.50566107 35.8499704,6.50566107 L35.8499704,6.50566107 Z M35.8499704,22.6493385 C31.1116951,22.6493385 27.3568353,19.195716 27.3568353,14.9389254 C27.3568353,10.6821348 31.2010965,7.30882911 35.8499704,7.30882911 C40.5882458,7.30882911 44.432507,10.7624517 44.432507,14.9389254 C44.432507,19.195716 40.5882458,22.6493385 35.8499704,22.6493385 L35.8499704,22.6493385 Z" id="Shape" sketch:type="MSShapeGroup"></path>
                <path d="M36.2969776,8.67421476 C36.2969776,8.43326435 36.1181747,8.27263075 35.8499704,8.27263075 C31.8269064,8.27263075 28.5190538,11.2443525 28.5190538,14.8586086 C28.5190538,15.099559 28.6978566,15.2601926 28.9660609,15.2601926 C29.2342652,15.2601926 29.413068,15.099559 29.413068,14.8586086 C29.413068,11.7262533 32.363315,9.07579878 35.8499704,9.07579878 C36.1181747,9.07579878 36.2969776,8.91516517 36.2969776,8.67421476 L36.2969776,8.67421476 Z" id="Shape" sketch:type="MSShapeGroup"></path>
                <path d="M42.73388,14.5373414 C42.4656757,14.5373414 42.2868729,14.697975 42.2868729,14.9389254 C42.2868729,18.0712808 39.3366259,20.7217353 35.8499704,20.7217353 C35.5817662,20.7217353 35.4029633,20.8823689 35.4029633,21.1233193 C35.4029633,21.3642697 35.5817662,21.5249033 35.8499704,21.5249033 C39.8730345,21.5249033 43.1808871,18.5531816 43.1808871,14.9389254 C43.1808871,14.7782918 43.0020843,14.5373414 42.73388,14.5373414 L42.73388,14.5373414 Z" id="Shape" sketch:type="MSShapeGroup"></path>
                <path d="M59.451946,8.11199714 L52.3892336,8.11199714 C52.1210294,8.11199714 51.9422265,8.27263075 51.9422265,8.51358116 L51.9422265,11.9672037 C51.9422265,12.2081541 52.1210294,12.3687877 52.3892336,12.3687877 C52.6574379,12.3687877 52.8362407,12.2081541 52.8362407,11.9672037 L52.8362407,8.91516517 L59.451946,8.91516517 C59.7201503,8.91516517 59.8989531,8.75453157 59.8989531,8.51358116 C59.8989531,8.27263075 59.7201503,8.11199714 59.451946,8.11199714 L59.451946,8.11199714 Z" id="Shape" sketch:type="MSShapeGroup"></path>
                <path d="M55.6076848,22.6493385 C53.6408535,22.6493385 52.1210294,24.095041 52.1210294,25.7816939 C52.1210294,27.4683468 53.730255,28.9140492 55.6076848,28.9140492 C57.4851147,28.9140492 59.0943403,27.4683468 59.0943403,25.7816939 C59.0943403,24.095041 57.5745161,22.6493385 55.6076848,22.6493385 L55.6076848,22.6493385 Z M55.6076848,28.1108812 C54.1772621,28.1108812 53.0150436,27.0667627 53.0150436,25.7816939 C53.0150436,24.496625 54.1772621,23.4525066 55.6076848,23.4525066 C57.0381076,23.4525066 58.2003261,24.496625 58.2003261,25.7816939 C58.2003261,27.0667627 57.0381076,28.1108812 55.6076848,28.1108812 L55.6076848,28.1108812 Z" id="Shape" sketch:type="MSShapeGroup"></path>
                <path d="M14.9300376,21.8461705 C12.5161992,21.8461705 10.5493679,23.6131402 10.5493679,25.7816939 C10.5493679,27.9502476 12.5161992,29.7172172 14.9300376,29.7172172 C17.343876,29.7172172 19.3107073,27.9502476 19.3107073,25.7816939 C19.3107073,23.6131402 17.2544746,21.8461705 14.9300376,21.8461705 L14.9300376,21.8461705 Z M14.9300376,28.9140492 C13.0526077,28.9140492 11.4433821,27.5486636 11.4433821,25.7816939 C11.4433821,24.0147242 12.9632063,22.6493385 14.9300376,22.6493385 C16.8968689,22.6493385 18.416693,24.0147242 18.416693,25.7816939 C18.416693,27.5486636 16.8074674,28.9140492 14.9300376,28.9140492 L14.9300376,28.9140492 Z" id="Shape" sketch:type="MSShapeGroup"></path>
                <path d="M70.0907153,40.7206193 L67.498074,34.2149582 L67.498074,8.11199714 C67.498074,4.49774099 64.2796228,1.60633607 60.2565588,1.60633607 L47.5615568,1.60633607 L47.5615568,0.48190082 C47.5615568,0.24095041 47.382754,0.0803168034 47.1145497,0.0803168034 L24.5853912,0.0803168034 C24.3171869,0.0803168034 24.1383841,0.24095041 24.1383841,0.48190082 L24.1383841,1.60633607 L10.6387693,1.60633607 C6.61570527,1.60633607 3.39725406,4.49774099 3.39725406,8.11199714 L3.39725406,34.1346414 L0.804612803,40.6403025 C0.804612803,40.7206193 0.71521138,40.8009361 0.71521138,40.8812529 L0.71521138,50.4389525 C0.71521138,52.4468726 2.59264125,54.1335255 4.82767682,54.1335255 L66.0676513,54.1335255 C68.3026868,54.1335255 70.1801167,52.4468726 70.1801167,50.4389525 L70.1801167,40.9615697 C70.1801167,40.8812529 70.1801167,40.8009361 70.0907153,40.7206193 L70.0907153,40.7206193 Z M25.0323983,0.883484837 L46.756944,0.883484837 L46.756944,1.44570246 L25.0323983,1.44570246 L25.0323983,0.883484837 L25.0323983,0.883484837 Z M10.6387693,3.21267213 L60.2565588,3.21267213 C63.2962072,3.21267213 65.7100456,5.38122583 65.7100456,8.11199714 L65.7100456,33.893691 L39.6942316,33.893691 L39.6942316,25.3801099 C44.5219084,23.9344074 48.0085639,19.8382504 48.0085639,15.0192422 C48.0085639,8.99548198 42.5550771,4.09615697 35.760569,4.09615697 C28.9660609,4.09615697 23.6019756,8.99548198 23.6019756,15.0192422 C23.6019756,19.7579336 26.9992296,23.8540906 31.737505,25.3801099 L31.737505,33.9740078 L5.18528251,33.9740078 L5.18528251,8.11199714 C5.18528251,5.38122583 7.59912092,3.21267213 10.6387693,3.21267213 L10.6387693,3.21267213 Z M35.0453576,33.893691 L35.0453576,25.8620107 L35.8499704,25.8620107 L36.4757804,25.8620107 L36.4757804,33.893691 L35.0453576,33.893691 L35.0453576,33.893691 Z M32.7209207,33.893691 L32.7209207,25.5407435 C33.1679278,25.6210603 33.7043363,25.7816939 34.1513434,25.7816939 L34.1513434,33.893691 L32.7209207,33.893691 L32.7209207,33.893691 Z M35.8499704,24.3359914 C30.1282794,24.3359914 25.4794054,20.1595176 25.4794054,15.0192422 C25.4794054,9.87896681 30.1282794,5.62217624 35.8499704,5.62217624 C41.5716615,5.62217624 46.3099369,9.79865001 46.3099369,14.9389254 C46.3099369,20.0792008 41.5716615,24.3359914 35.8499704,24.3359914 L35.8499704,24.3359914 Z M37.3697946,25.8620107 C37.9062032,25.7816939 38.3532103,25.7013771 38.8002174,25.6210603 L38.8002174,33.9740078 L37.3697946,33.9740078 L37.3697946,25.8620107 L37.3697946,25.8620107 Z M5.00647966,34.6968591 L32.1845121,34.6968591 L34.5089491,34.6968591 L36.8333861,34.6968591 L39.1578231,34.6968591 L65.7100456,34.6968591 L68.0344826,40.4796689 L2.68204268,40.4796689 L5.00647966,34.6968591 L5.00647966,34.6968591 Z M66.0676513,52.6075062 L4.82767682,52.6075062 C3.5760569,52.6075062 2.50323983,51.6437046 2.50323983,50.5192693 L2.50323983,41.3631537 L68.4814897,41.3631537 L68.4814897,50.5192693 C68.3920883,51.6437046 67.3192712,52.6075062 66.0676513,52.6075062 L66.0676513,52.6075062 Z" id="Shape" sketch:type="MSShapeGroup"></path>
                <path d="M10.0129593,18.794132 L18.8637002,18.794132 C20.2047215,18.794132 21.2775386,17.8303303 21.2775386,16.6255783 L21.2775386,15.0192422 C21.2775386,13.8144902 20.2047215,12.8506885 18.8637002,12.8506885 L10.0129593,12.8506885 C8.67193799,12.8506885 7.59912092,13.8144902 7.59912092,15.0192422 L7.59912092,16.6255783 C7.59912092,17.8303303 8.67193799,18.794132 10.0129593,18.794132 L10.0129593,18.794132 Z M8.49313514,15.0192422 C8.49313514,14.296391 9.1189451,13.6538566 10.0129593,13.6538566 L18.8637002,13.6538566 C19.668313,13.6538566 20.3835243,14.2160742 20.3835243,15.0192422 L20.3835243,16.6255783 C20.3835243,17.3484295 19.7577144,17.990964 18.8637002,17.990964 L10.0129593,17.990964 C9.20834652,17.990964 8.49313514,17.4287463 8.49313514,16.6255783 L8.49313514,15.0192422 L8.49313514,15.0192422 Z" id="Shape" sketch:type="MSShapeGroup"></path>
                <path d="M65.799447,46.4231123 L5.09588109,46.4231123 C4.38066971,46.4231123 3.84426117,46.9050132 3.84426117,47.5475476 L3.84426117,50.2783189 C3.84426117,50.9208533 4.38066971,51.4027542 5.09588109,51.4027542 L65.799447,51.4027542 C66.5146584,51.4027542 67.0510669,50.9208533 67.0510669,50.2783189 L67.0510669,47.5475476 C67.0510669,46.9050132 66.5146584,46.4231123 65.799447,46.4231123 L65.799447,46.4231123 Z M66.1570527,50.2783189 C66.1570527,50.4389525 65.9782498,50.5995861 65.799447,50.5995861 L5.09588109,50.5995861 C4.91707824,50.5995861 4.7382754,50.4389525 4.7382754,50.2783189 L4.7382754,47.5475476 C4.7382754,47.386914 4.91707824,47.2262804 5.09588109,47.2262804 L65.799447,47.2262804 C65.9782498,47.2262804 66.1570527,47.386914 66.1570527,47.5475476 L66.1570527,50.2783189 L66.1570527,50.2783189 Z" id="Shape" sketch:type="MSShapeGroup"></path>
            </g>
        </g>
    </g>
</svg>