<?xml version="1.0" encoding="UTF-8" standalone="no"?>
<svg width="100px" height="100px" viewBox="0 0 100 100" version="1.1" xmlns="http://www.w3.org/2000/svg" xmlns:xlink="http://www.w3.org/1999/xlink" xmlns:sketch="http://www.bohemiancoding.com/sketch/ns">
    <!-- Generator: Sketch 3.5.2 (25235) - http://www.bohemiancoding.com/sketch -->
    <title>idea</title>
    <desc>Created with Sketch.</desc>
    <defs></defs>
    <g id="Page-1" stroke="none" stroke-width="1" fill="none" fill-rule="evenodd" sketch:type="MSPage">
        <g id="idea" sketch:type="MSArtboardGroup" fill-opacity="0.5096524" fill="#000000">
            <g id="noun_77636_cc" sketch:type="MSLayerGroup" transform="translate(13.000000, 8.000000)">
                <path d="M37.8616649,64.5128772 C32.1663895,64.5128772 27.5107279,60.2533731 27.5107279,55.0427177 C27.5107279,54.463756 27.5559285,53.8847942 27.6915302,53.3058325 C21.7250513,50.0388342 18.0638028,44.1251538 18.0638028,37.7565749 C18.0638028,27.7488081 26.9683207,19.643344 37.8616649,19.643344 C48.7550091,19.643344 57.659527,27.7901625 57.659527,37.7565749 C57.659527,44.1251538 53.9982785,50.0388342 48.0317995,53.3058325 C48.1674013,53.8847942 48.2126019,54.463756 48.2126019,55.0427177 C48.2578025,60.2533731 43.6021409,64.5128772 37.8616649,64.5128772 L37.8616649,64.5128772 Z M37.8616649,21.2975204 C27.9175332,21.2975204 19.8718267,28.6999595 19.8718267,37.7565749 C19.8718267,43.7529642 23.442674,49.2531005 29.18315,52.1479091 C29.5447548,52.3133267 29.7255572,52.7268708 29.635156,53.0577061 C29.4543536,53.7193766 29.3639524,54.3810471 29.3639524,55.0013633 C29.3639524,59.3022217 33.2060033,62.8173465 37.9068655,62.8173465 C42.6077277,62.8173465 46.4497786,59.3022217 46.4497786,55.0013633 C46.4497786,54.3810471 46.3593774,53.7193766 46.178575,53.0577061 C46.0881738,52.6855164 46.2689762,52.3133267 46.630581,52.1479091 C52.371057,49.2531005 55.9419043,43.7116097 55.9419043,37.7565749 C55.8967037,28.6999595 47.8057965,21.2975204 37.8616649,21.2975204 L37.8616649,21.2975204 Z" id="Shape" sketch:type="MSShapeGroup"></path>
                <path d="M42.2009223,60.3774364 L33.6128086,60.3774364 C33.1156021,60.3774364 32.7087967,60.0052467 32.7087967,59.5503482 C32.7087967,59.0954497 33.1156021,58.72326 33.6128086,58.72326 L42.2009223,58.72326 C42.6981289,58.72326 43.1049343,59.0954497 43.1049343,59.5503482 C43.1049343,60.0052467 42.6981289,60.3774364 42.2009223,60.3774364 L42.2009223,60.3774364 Z" id="Shape" sketch:type="MSShapeGroup"></path>
                <path d="M44.4609523,57.4826278 L31.3527787,57.4826278 C30.8555721,57.4826278 30.4487667,57.1104381 30.4487667,56.6555396 C30.4487667,56.2006411 30.8555721,55.8284514 31.3527787,55.8284514 L44.4609523,55.8284514 C44.9581588,55.8284514 45.3649642,56.2006411 45.3649642,56.6555396 C45.3649642,57.1104381 44.9581588,57.4826278 44.4609523,57.4826278 L44.4609523,57.4826278 Z" id="Shape" sketch:type="MSShapeGroup"></path>
                <path d="M44.4609523,54.5878192 L31.3527787,54.5878192 C30.8555721,54.5878192 30.4487667,54.2156295 30.4487667,53.760731 C30.4487667,53.3058325 30.8555721,52.9336428 31.3527787,52.9336428 L44.4609523,52.9336428 C44.9581588,52.9336428 45.3649642,53.3058325 45.3649642,53.760731 C45.3649642,54.2156295 44.9581588,54.5878192 44.4609523,54.5878192 L44.4609523,54.5878192 Z" id="Shape" sketch:type="MSShapeGroup"></path>
                <path d="M39.9408924,50.8659224 C39.4436858,50.8659224 39.0368804,50.4937327 39.0368804,50.0388342 L39.0368804,39.286688 L36.7768505,39.286688 L36.7768505,50.0388342 C36.7768505,50.4937327 36.3700451,50.8659224 35.8728386,50.8659224 C35.375632,50.8659224 34.9688266,50.4937327 34.9688266,50.0388342 L34.9688266,39.286688 L31.4431799,39.286688 C28.5955422,39.286688 26.2903117,37.1362588 26.2903117,34.4895767 C26.2903117,31.8428945 28.6407428,29.6924653 31.5335811,29.6924653 C34.4264194,29.6924653 36.7768505,31.8428945 36.7768505,34.4482223 L36.7768505,37.6325117 L39.0368804,37.6325117 L39.0368804,34.4482223 C39.0368804,31.8428945 41.3873116,29.7338197 44.2801499,29.7338197 C47.1729882,29.7338197 49.5234193,31.8842489 49.5234193,34.5309311 C49.5234193,37.1776132 47.1729882,39.3280425 44.3253505,39.3280425 L40.8449044,39.3280425 L40.8449044,50.0801887 C40.8449044,50.4937327 40.438099,50.8659224 39.9408924,50.8659224 L39.9408924,50.8659224 Z M40.8449044,37.6325117 L44.3705511,37.6325117 C46.2237756,37.6325117 47.7605959,36.2264618 47.7605959,34.4895767 C47.7605959,32.7940459 46.178575,31.3466416 44.3253505,31.3466416 C42.4269253,31.3466416 40.890105,32.7113371 40.890105,34.4068678 L40.890105,37.6325117 L40.8449044,37.6325117 Z M31.5335811,31.3466416 C29.6803566,31.3466416 28.0983356,32.7940459 28.0983356,34.4895767 C28.0983356,36.2264618 29.5899554,37.6325117 31.4431799,37.6325117 L34.9688266,37.6325117 L34.9688266,34.4482223 C34.9688266,32.7113371 33.4320062,31.3466416 31.5335811,31.3466416 L31.5335811,31.3466416 Z" id="Shape" sketch:type="MSShapeGroup"></path>
                <path d="M74.2933472,33.0835268 L65.7052335,33.0835268 C65.2080269,33.0835268 64.8012215,32.7113371 64.8012215,32.2564386 C64.8012215,31.8015401 65.2080269,31.4293504 65.7052335,31.4293504 L74.2933472,31.4293504 C74.7905538,31.4293504 75.1973592,31.8015401 75.1973592,32.2564386 C75.1973592,32.7113371 74.7905538,33.0835268 74.2933472,33.0835268 L74.2933472,33.0835268 Z" id="Shape" sketch:type="MSShapeGroup"></path>
                <path d="M57.659527,17.0793707 C57.433524,17.0793707 57.207521,16.9966619 57.0267186,16.8312442 C56.6651138,16.500409 56.6651138,16.0041561 57.0267186,15.6733208 L63.0835988,10.1318301 C63.4452036,9.80099481 63.9876108,9.80099481 64.3492156,10.1318301 C64.7108203,10.4626653 64.7108203,10.9589182 64.3492156,11.2897535 L58.2923354,16.8312442 C58.111533,16.9966619 57.88553,17.0793707 57.659527,17.0793707 L57.659527,17.0793707 Z" id="Shape" sketch:type="MSShapeGroup"></path>
                <path d="M10.1084975,33.0835268 L1.52038376,33.0835268 C1.02317718,33.0835268 0.616371797,32.7113371 0.616371797,32.2564386 C0.616371797,31.8015401 1.02317718,31.4293504 1.52038376,31.4293504 L10.1084975,31.4293504 C10.605704,31.4293504 11.0125094,31.8015401 11.0125094,32.2564386 C11.0125094,32.7113371 10.605704,33.0835268 10.1084975,33.0835268 L10.1084975,33.0835268 Z" id="Shape" sketch:type="MSShapeGroup"></path>
                <path d="M37.6808625,9.51151395 C37.1836559,9.51151395 36.7768505,9.13932427 36.7768505,8.68442578 L36.7768505,0.827088169 C36.7768505,0.372189676 37.1836559,0 37.6808625,0 C38.1780691,0 38.5848745,0.372189676 38.5848745,0.827088169 L38.5848745,8.68442578 C38.5848745,9.13932427 38.1780691,9.51151395 37.6808625,9.51151395 L37.6808625,9.51151395 Z" id="Shape" sketch:type="MSShapeGroup"></path>
                <path d="M20.0526291,17.0793707 C19.8266261,17.0793707 19.6006231,16.9966619 19.4198207,16.8312442 L13.3629405,11.2897535 C13.0013358,10.9589182 13.0013358,10.4626653 13.3629405,10.1318301 C13.7245453,9.80099481 14.2669525,9.80099481 14.6285573,10.1318301 L20.6854375,15.6733208 C21.0470423,16.0041561 21.0470423,16.500409 20.6854375,16.8312442 C20.5498357,16.9966619 20.2786321,17.0793707 20.0526291,17.0793707 L20.0526291,17.0793707 Z" id="Shape" sketch:type="MSShapeGroup"></path>
            </g>
        </g>
    </g>
</svg>